<?xml version="1.0" encoding="UTF-8" standalone="no"?>
<!-- Created with Inkscape (http://www.inkscape.org/) -->

<svg
        width="32"
        height="32"
        version="1.1"
        xmlns="http://www.w3.org/2000/svg"
>
    <style> <![CDATA[
        path, circle {
            fill: none;
            stroke-width: 4.5;
            stroke-linecap: round;
            stroke: #e3e3e3;
        }
        ]]>
    </style>
    <circle cx="16"
            cy="16"
            r="8.7011251"/>
    <path d="m 16.369517,6.4620801 c 0.04815,-0.4713958 0.05508,-2.531366 0.05508,-2.531366"/>
    <path d="m 6.5532217,15.343231 c -0.4713958,-0.04815 -2.531366,-0.05508 -2.531366,-0.05508"/>
    <path d="m 25.966653,15.398307 c 0.471395,-0.04815 2.531366,-0.05508 2.531366,-0.05508"/>
    <path d="m 16.58982,25.820435 c 0.04815,0.471395 0.05508,2.531366 0.05508,2.531366"/>
    <path d="m 23.863972,23.252377 c 0.367374,0.299279 1.828894,1.750998 1.828894,1.750998"/>
    <path d="M 9.59219,23.252377 C 9.224816,23.551656 7.763296,25.003375 7.763296,25.003375"/>
    <path d="M 9.59219,8.5895332 C 9.224816,8.2902542 7.763296,6.8385352 7.763296,6.8385352"/>
    <path d="m 23.478442,8.5895332 c 0.367374,-0.299279 1.828894,-1.750998 1.828894,-1.750998"/>

</svg>
