<?xml version="1.0" encoding="UTF-8" standalone="yes"?>
<svg
        width="32"
        height="32"
        version="1.1"
        xmlns="http://www.w3.org/2000/svg"
>

    <style> <![CDATA[
        path {
            fill: #e3e3e3;
        }
        ]]>
    </style>

    <path d="m 22.820815,18.44121 c 1.046266,-0.08129 1.785263,-0.218169 1.8488,-0.440547 0.236074,-0.826256 5.665763,-11.6856354 5.665763,-11.6856354 l -6.84613,-4.721469 v 0 L 20.53833,12.098827 18.055558,12.535764"/>
    <path d="M 9.8248704,16.415732 8.4987339,16.649115 1.5345672,31.102591 11.921798,21.42358 c 0,0 0.786185,0.02912 1.913235,0.05117"/>
    <path d="m 22.744446,28.637678 3.63898,-3.061013 -12.236983,-15.18889 c 0,0 1.389415,-2.5370248 -0.155619,-4.5721483 C 12.518628,3.9757548 8.915567,3.3293759 8.915567,3.3293759 L 7.5657674,4.5502973 11.082859,8.9457695 9.3330693,10.417646 5.7162795,6.1060372 4.0802434,7.3967209 c 0,0 0.5171189,3.3734361 2.0483736,5.3742861 1.8313601,2.392985 4.428632,0.635893 4.428632,0.635893 z"/>

</svg>
